<svg width="65" height="77" viewBox="0 0 65 77" fill="none" xmlns="http://www.w3.org/2000/svg">
<path d="M36.6775 0.238816C37.2387 -0.190265 38.071 0.0306671 38.7049 0.340321C39.4333 0.690877 40.1828 1.46422 40.7797 2.02595C42.9485 4.06662 44.1121 5.83221 45.0534 8.69143C46.1451 12.0076 45.3551 15.4264 44.0178 18.6772C44.438 18.977 44.8327 19.3142 45.1964 19.6857C47.8547 22.4423 47.6973 25.4054 47.6486 28.9016L48.3303 28.9007C49.7918 28.8987 50.958 28.8625 52.053 30.0553C53.0955 31.191 52.9654 33.1976 52.9156 34.6343C58.6468 33.2404 59.2425 32.9767 59.1177 28.0931C59.084 27.0428 58.5299 25.3969 60.0729 24.8836C60.572 24.7206 60.706 24.7641 61.1731 25.0046C61.6544 25.2498 62.0161 25.6816 62.1746 26.2006C62.3597 26.7943 62.3206 27.346 62.3195 27.9758C62.3151 30.6051 62.7075 30.552 61.7185 32.9543C60.502 35.9096 57.9322 36.7132 54.8827 37.6827C54.2953 37.8694 53.4869 38.0549 52.8835 38.1895C52.9357 38.4621 52.9343 39.7075 52.9241 40.0373C52.9033 40.7297 52.966 41.7643 52.9097 42.4318L61.8123 42.4278C65.3052 42.4279 65.5386 45.356 61.8123 45.3561L59.3194 45.3711L55.4334 45.3616C54.6367 45.36 53.6946 45.3984 52.9102 45.3561C52.9514 46.1028 52.9178 47.5707 52.9253 48.3309C52.93 48.8093 52.951 50.2844 52.9097 50.7247C58.9757 51.7751 61.9501 53.3912 62.2614 59.528C62.2828 59.9511 62.3288 60.4039 62.3224 60.8253C62.3223 63.8241 60.4878 65.1569 59.4756 63.824C59.3338 63.6198 59.2359 63.3878 59.1882 63.1431C59.0969 62.6681 59.1138 61.8877 59.1166 61.3888C59.1213 60.5617 59.1125 59.8701 59.0249 59.0468C58.6339 55.3353 56.5129 55.0172 52.9091 54.1393C53.1655 59.7322 51.2093 65.8856 47.4697 70.0299C44.3957 73.4535 40.2705 75.7412 35.753 76.5274C35.1182 76.642 32.8647 76.7354 32.5201 76.8939H32.2293V76.8936H32.0001C31.6555 76.7351 29.402 76.6417 28.7672 76.5271C24.2497 75.7409 20.1245 73.4532 17.0505 70.0296C13.311 65.8853 11.3547 59.7319 11.6111 54.139C8.00726 55.0169 5.88635 55.335 5.4953 59.0466C5.40769 59.8698 5.39888 60.5614 5.40365 61.3885C5.40638 61.8874 5.42334 62.6678 5.33198 63.1428C5.28426 63.3875 5.18639 63.6195 5.04459 63.8237C4.03241 65.1566 2.19787 63.8238 2.19784 60.825C2.19137 60.4036 2.23737 59.9508 2.25885 59.5277C2.57012 53.3909 5.54453 51.7749 11.6105 50.7244C11.5692 50.2841 11.5902 48.809 11.5949 48.3306C11.6024 47.5704 11.5688 46.1025 11.61 45.3558C10.8256 45.3981 9.88355 45.3597 9.08682 45.3613L5.2008 45.3708L2.70793 45.3558C-1.01842 45.3557 -0.784982 42.4276 2.70793 42.4275L11.6105 42.4315C11.5542 41.764 11.6169 40.7294 11.5961 40.037C11.5859 39.7072 11.5845 38.4618 11.6367 38.1892C11.0333 38.0546 10.2249 37.8691 9.63749 37.6824C6.58798 36.7129 4.01823 35.9093 2.80166 32.954C1.81274 30.5517 2.20509 30.6048 2.20066 27.9755C2.19963 27.3457 2.16051 26.794 2.34561 26.2003C2.50415 25.6813 2.8658 25.2495 3.34714 25.0043C3.81419 24.7638 3.9482 24.7203 4.44728 24.8833C5.99026 25.3966 5.43623 27.0425 5.40246 28.0928C5.27771 32.9764 5.87345 33.2401 11.6046 34.634C11.5548 33.1973 11.4247 31.1907 12.4672 30.055C13.5622 28.8622 14.7284 28.8984 16.1899 28.9004L16.8047 28.9011C16.8098 27.3595 16.7025 25.8409 16.9519 24.291C17.3156 22.0004 18.5774 19.9809 20.4135 18.6575C19.0812 15.4126 18.2967 12.0009 19.3862 8.69143C20.3275 5.83221 21.4912 4.06662 23.6599 2.02595C24.2569 1.46422 25.0063 0.690877 25.7348 0.340321C26.3687 0.0306671 27.201 -0.190265 27.7621 0.238816C29.0376 1.21418 27.6806 2.94258 25.4413 4.94529C21.7597 8.23799 21.5167 11.991 23.8995 17.2466C24.4627 17.1578 25.0892 17.0992 25.721 17.0992H38.7728C39.2064 17.0992 39.8951 17.1863 40.5214 17.288C42.9243 12.0108 42.6896 8.24664 38.9984 4.94529C36.7591 2.94258 35.4021 1.21418 36.6775 0.238816Z" fill="white"/>
</svg>
