<svg width="78" height="69" viewBox="0 0 78 69" fill="none" xmlns="http://www.w3.org/2000/svg">
<path d="M38.8847 32.3695C39.8102 29.7437 40.9871 27.214 42.3991 24.8161C47.5903 15.9549 55.9483 7.38649 64.7735 2.16716C67.5372 0.532611 71.0353 -0.688976 74.1521 0.436248C75.4824 0.916615 76.5496 1.77573 77.1546 3.06899C77.3483 3.4805 77.4884 3.9156 77.5704 4.36335C77.6422 4.74076 77.638 5.54611 77.7778 5.77263V11.752C77.5833 12.068 77.6418 14.5423 77.613 15.058C77.2681 21.2089 76.9837 29.5772 73.1757 34.6626C69.5743 39.4723 62.8116 40.0743 57.3254 40.3837C56.3365 40.4398 55.0027 40.3731 54.0601 40.4992L53.9963 40.5083C54.6575 40.6413 55.4755 40.5765 56.2005 40.6581C58.9998 40.9721 61.626 41.6469 64.0527 43.1356C66.7263 44.7755 68.716 47.3059 69.4778 50.3816C69.7885 51.6375 69.8682 53.2626 69.4976 54.5105C69.3259 55.0885 68.9738 55.8513 68.7133 56.408C68.2618 57.3781 67.7533 58.3204 67.1904 59.2296C64.8499 63.0536 59.8513 68.9382 54.6852 68.9394C53.7897 68.9398 52.0059 67.9262 51.2205 67.4195C47.5865 65.0753 44.3949 61.6735 42.1447 57.9794C41.4706 56.8603 40.8656 55.7008 40.3328 54.5074C39.8524 53.4558 39.1551 51.7198 38.8919 50.5908C38.6132 51.7286 37.9599 53.3716 37.4791 54.4347C35.4694 58.9876 32.3792 62.9774 28.4783 66.0554C27.4519 66.8662 24.6577 68.7763 23.4097 68.9009C19.5147 69.2896 15.1398 65.312 12.8911 62.4893C11.1809 60.3429 10.0622 58.5102 8.9343 56.1367C8.10575 54.3931 7.88172 53.223 8.11688 51.3826C8.26309 50.2932 8.58229 49.2347 9.06236 48.2471C11.518 43.0894 17.1946 40.8288 22.6319 40.5967C22.8378 40.588 23.4127 40.6234 23.5646 40.5057C23.3355 40.4276 20.9273 40.4169 20.4779 40.3895C16.4029 40.1403 11.9321 39.7954 8.28246 37.8068C6.86324 37.0333 5.34559 35.7397 4.40891 34.4C0.830521 29.1542 0.648009 22.2373 0.219069 16.1123C0.155708 15.2076 0.213462 11.9653 0 11.347V5.69342C0.118985 5.48297 0.169194 4.60466 0.233205 4.30216C1.30277 -0.752189 7.53765 -0.749141 11.2197 1.27871C11.7986 1.59752 12.4158 1.8245 12.9882 2.15794C23.188 7.97016 34.8098 20.7707 38.7123 31.834C38.775 32.0108 38.8323 32.1893 38.8847 32.3695Z" fill="white"/>
</svg>
