<svg width="86" height="69" viewBox="0 0 86 69" fill="none" xmlns="http://www.w3.org/2000/svg">
<path d="M55.9425 0.000867661C56.714 -0.0261637 57.3611 0.58174 57.388 1.35868C57.4148 2.13567 56.8111 2.78759 56.0397 2.81463C52.0639 2.95397 49.519 4.92266 47.8904 7.38231C46.6548 9.24859 45.9598 11.3896 45.64 13.1774C52.7443 14.478 66.5587 19.3275 76.2222 30.7511C86.0958 42.4232 85.7307 45.653 85.7306 51.0216C85.7305 54.076 81.8145 62.5659 68.5572 61.9697C68.5572 64.0835 65.7611 67.6065 61.6634 66.4683C61.1814 68.5279 56.0713 68.853 54.0466 65.8179C48.1169 67.0103 43.5147 56.0861 44.4532 51.0216C44.1018 51.8654 43.2965 53.5582 42.8701 53.6217V53.6231C42.8688 53.6229 42.8675 53.6225 42.8662 53.6223C42.8648 53.6225 42.8635 53.6229 42.8622 53.6231L42.862 53.6217C42.4357 53.5579 41.6304 51.8653 41.2791 51.0216C42.2176 56.0861 37.6154 67.0103 31.6858 65.8179C29.661 68.853 24.551 68.5279 24.0689 66.4683C19.9712 67.6065 17.1751 64.0835 17.1751 61.9697C3.91787 62.5659 0.00179944 54.076 0.00174867 51.0216C0.00165913 45.653 -0.36345 42.4232 9.51017 30.7511C19.6393 18.777 34.3292 14.0261 41.0715 13.014C40.7392 11.2601 40.0493 9.19207 38.851 7.38231C37.2224 4.92266 34.6775 2.95397 30.7018 2.81463C29.9303 2.78759 29.3266 2.13567 29.3535 1.35868C29.3804 0.58174 30.0275 -0.0261637 30.7989 0.000867661C35.8244 0.17698 39.1385 2.74161 41.177 5.82037C42.2002 7.36579 42.9071 9.04358 43.3707 10.6298C43.8344 9.04358 44.5412 7.36579 45.5644 5.82037C47.6029 2.74161 50.9171 0.17698 55.9425 0.000867661Z" fill="white"/>
</svg>
