<svg width="69" height="62" viewBox="0 0 69 62" fill="none" xmlns="http://www.w3.org/2000/svg">
<path d="M64.071 0.00605986C64.8801 -0.0429192 65.5576 0.198758 65.9575 0.959575C66.2205 1.89507 65.2079 2.58064 64.568 3.44712C64.274 3.84494 63.9919 4.2517 63.7219 4.66677C62.3378 6.78486 60.6692 9.41876 60.6692 11.8506C64.8799 12.0597 69.7018 15.258 68.838 20.1373C68.5394 21.825 66.9994 22.6196 65.9811 23.8309C63.3765 26.9289 60.3668 35.8243 59.8991 39.6322C59.6534 41.6198 59.2621 43.5863 58.7287 45.515C57.1623 51.1942 54.0454 56.7534 48.8343 59.7134C46.933 60.7774 44.8426 61.4496 42.6836 61.6905C41.1225 61.8687 39.864 61.86 38.2951 61.86L6.50789 61.8603C5.52225 61.8611 3.89694 61.9288 3.00229 61.6659C1.93795 61.3497 1.0405 60.6194 0.50664 59.6345C-0.194248 58.3444 -0.0759511 56.8431 0.308401 55.4725C0.488358 54.9044 0.738347 54.3618 1.05257 53.8573C2.36671 51.7484 4.12559 51.1501 6.33588 50.5091C7.18308 50.2633 8.0355 49.929 8.90728 49.7318C8.95941 49.7829 9.01198 49.8335 9.06464 49.8839C5.51871 45.3979 4.43305 39.5365 5.03245 33.9428C5.71612 27.8952 8.74177 22.3657 13.4586 18.5441C18.3242 14.6348 24.3847 13.0684 30.5582 13.7543C37.2075 14.6024 44.0224 19.5902 46.9452 25.9554C47.9987 22.9011 50.509 15.5823 54.8178 12.9906C54.0609 10.4578 53.653 8.57195 53.9711 5.94534C54.1105 4.80968 54.2091 2.719 55.7416 3.40808C57.2486 4.09729 56.6823 5.53751 56.5642 6.76839C56.4063 8.40535 56.5567 10.3749 57.1434 11.9266C57.4157 11.2585 57.6215 10.549 57.8931 9.80215C58.5896 7.8682 59.4677 6.00636 60.5153 4.24226C61.1755 3.13399 61.8809 2.06 62.6697 1.04121C63.0988 0.487254 63.376 0.179942 64.071 0.00605986Z" fill="white"/>
</svg>
