<svg width="24" height="22" viewBox="0 0 24 22" fill="none" xmlns="http://www.w3.org/2000/svg">
<path d="M15.3457 0C16.0733 0 16.4371 8.06302e-05 16.7578 0.112305C17.032 0.208235 17.2818 0.363121 17.4902 0.56543C17.7339 0.802078 17.8974 1.12686 18.2227 1.77734L19.3164 3.9668C19.7352 4.80432 20.5919 5.33301 21.5283 5.33301C22.8934 5.33325 24 6.44049 24 7.80566V15.334C24 18.1621 23.9997 19.5764 23.1211 20.4551C22.2424 21.3335 20.8282 21.334 18 21.334H6C3.17183 21.334 1.7576 21.3335 0.878906 20.4551C0.000276293 19.5764 2.80826e-09 18.1621 0 15.334V7.80566C0 6.44049 1.10657 5.33325 2.47168 5.33301C3.40806 5.33301 4.26484 4.80432 4.68359 3.9668L5.77734 1.77734C6.10258 1.12686 6.26607 0.802078 6.50977 0.56543C6.71817 0.363122 6.96804 0.208235 7.24219 0.112305C7.56292 8.06302e-05 7.92673 0 8.6543 0H15.3457ZM11.999 5.66602C8.50173 5.66634 5.6664 8.50173 5.66602 11.999C5.66602 15.4966 8.50149 18.3327 11.999 18.333C15.4968 18.333 18.333 15.4968 18.333 11.999C18.3326 8.50153 15.4966 5.66602 11.999 5.66602ZM11.999 7.66602C14.392 7.66602 16.3326 9.60608 16.333 11.999C16.333 14.3923 14.3923 16.333 11.999 16.333C9.60608 16.3327 7.66602 14.3921 7.66602 11.999C7.6664 9.60628 9.60631 7.66634 11.999 7.66602Z" fill="#919291"/>
</svg>
