<svg width="52" height="52" viewBox="0 0 52 52" fill="none" xmlns="http://www.w3.org/2000/svg">
<path d="M30.3988 36.2003C28.6259 35.2757 27.0935 33.8559 25.9312 32.5252C25.2123 31.7023 24.2838 30.8435 23.2729 30.0184C21.027 28.1854 18.3741 26.5183 16.7084 25.7778L4.46191 41.4148M33.4906 6.57721C38.4575 12.7209 40.0106 15.8675 41.3912 20.1921C42.5377 23.7836 43.0324 32.1326 39.4993 35.1003C36.2178 37.8566 33.0413 37.5784 30.3988 36.2003M33.4906 6.57721C30.3536 3.74319 23.7785 7.40993 20.0515 11.6817C16.3245 15.9535 12.8765 22.3463 16.0136 25.1803C19.1506 28.0143 24.7963 24.4666 29.0085 19.983C30.2968 18.6117 31.5098 17.0903 32.4832 15.5578M33.4906 6.57721C35.6682 8.54444 34.6926 12.0797 32.4832 15.5578M32.4832 15.5578C33.3234 16.8599 34.8851 20.6286 34.4101 25.2865C33.8165 31.1089 30.8984 36.4772 30.3988 36.2003M23.2729 30.0184C25.5605 29.9374 31.1046 28.9486 34.0157 27.7938C36.6674 26.742 39.621 24.8398 41.866 22.1738" stroke="#919291" stroke-width="2.23102" stroke-linecap="round"/>
</svg>
