<svg width="21" height="21" viewBox="0 0 21 21" fill="none" xmlns="http://www.w3.org/2000/svg">
<path d="M13.125 18.375V11.375C13.125 11.1429 13.0328 10.9204 12.8687 10.7563C12.7046 10.5922 12.4821 10.5 12.25 10.5H8.75C8.51794 10.5 8.29538 10.5922 8.13128 10.7563C7.96719 10.9204 7.875 11.1429 7.875 11.375V18.375" stroke="#008F5D" stroke-width="1.75" stroke-linecap="round" stroke-linejoin="round"/>
<path d="M2.625 8.75003C2.62494 8.49547 2.68042 8.24395 2.78756 8.01303C2.89471 7.78212 3.05095 7.57735 3.24538 7.41303L9.37037 2.16391C9.68624 1.89695 10.0864 1.75049 10.5 1.75049C10.9136 1.75049 11.3138 1.89695 11.6296 2.16391L17.7546 7.41303C17.9491 7.57735 18.1053 7.78212 18.2124 8.01303C18.3196 8.24395 18.3751 8.49547 18.375 8.75003V16.625C18.375 17.0892 18.1906 17.5343 17.8624 17.8625C17.5342 18.1907 17.0891 18.375 16.625 18.375H4.375C3.91087 18.375 3.46575 18.1907 3.13756 17.8625C2.80937 17.5343 2.625 17.0892 2.625 16.625V8.75003Z" stroke="#008F5D" stroke-width="1.75" stroke-linecap="round" stroke-linejoin="round"/>
</svg>
