<svg width="52" height="52" viewBox="0 0 52 52" fill="none" xmlns="http://www.w3.org/2000/svg">
<path d="M30.3998 36.2003C28.6269 35.2757 27.0945 33.8559 25.9322 32.5252C25.2133 31.7023 24.2848 30.8435 23.2739 30.0184C21.028 28.1854 18.375 26.5183 16.7094 25.7778L4.46289 41.4148M33.4916 6.57721C38.4585 12.7209 40.0116 15.8675 41.3922 20.1921C42.5387 23.7836 43.0334 32.1326 39.5002 35.1003C36.2188 37.8566 33.0422 37.5784 30.3998 36.2003M33.4916 6.57721C30.3546 3.74319 23.7795 7.40993 20.0525 11.6817C16.3255 15.9535 12.8775 22.3463 16.0145 25.1803C19.1516 28.0143 24.7972 24.4666 29.0094 19.983C30.2978 18.6117 31.5107 17.0903 32.4842 15.5578M33.4916 6.57721C35.6691 8.54444 34.6935 12.0797 32.4842 15.5578M32.4842 15.5578C33.3244 16.8599 34.8861 20.6286 34.4111 25.2865C33.8174 31.1089 30.8993 36.4772 30.3998 36.2003M23.2739 30.0184C25.5615 29.9374 31.1056 28.9486 34.0167 27.7938C36.6684 26.742 39.622 24.8398 41.8669 22.1738" stroke="#919291" stroke-width="2.23102" stroke-linecap="round"/>
</svg>
