<svg width="44" height="44" viewBox="0 0 44 44" fill="none" xmlns="http://www.w3.org/2000/svg">
<path d="M35.8914 31.3992C37.2503 32.2366 37.9657 33.1864 37.9657 34.1533C37.9657 35.1203 37.2503 36.0701 35.8914 36.9075C34.5325 37.7449 32.578 38.4402 30.2243 38.9237C27.8706 39.4072 25.2007 39.6617 22.4829 39.6617C19.7651 39.6617 17.0951 39.4072 14.7414 38.9237C12.3877 38.4402 10.4332 37.7449 9.07431 36.9075C7.71541 36.0701 7 35.1203 7 34.1533C7 33.1864 7.71541 32.2366 9.07431 31.3992" stroke="#57B1A8" stroke-width="2.5" stroke-linecap="round"/>
<path d="M33.1995 15.7715C33.1995 22.6333 26.0886 29.1464 23.4504 31.3266C22.8824 31.796 22.0789 31.796 21.5109 31.3266C18.8727 29.1464 11.7617 22.6333 11.7617 15.7715C11.7617 9.30858 16.9554 5 22.4806 5C28.1974 5 33.1995 9.30858 33.1995 15.7715Z" stroke="#57B1A8" stroke-width="2.5"/>
<circle cx="22.3317" cy="15.2726" r="3.96058" stroke="#57B1A8" stroke-width="2.5"/>
</svg>
