<svg width="44" height="44" viewBox="0 0 44 44" fill="none" xmlns="http://www.w3.org/2000/svg">
<path d="M8.92773 17.837C8.92773 13.4702 12.4678 9.93018 16.8346 9.93018H26.7182C31.085 9.93018 34.625 13.4702 34.625 17.837V31.674C34.625 36.0409 31.085 39.5809 26.7182 39.5809H16.8346C12.4678 39.5809 8.92773 36.0409 8.92773 31.674V17.837Z" stroke="#EB5E88" stroke-width="2.5" stroke-linecap="round" stroke-linejoin="round"/>
<path d="M14.8579 21.7905H12.8812C10.6977 21.7905 8.92773 20.0204 8.92773 17.837C8.92773 13.4702 12.4678 9.93018 16.8346 9.93018H26.7182C31.085 9.93018 34.625 13.4702 34.625 17.837C34.625 20.0204 32.855 21.7905 30.6716 21.7905H28.6949M18.8113 21.7905H24.7414" stroke="#EB5E88" stroke-width="2.5" stroke-linecap="round" stroke-linejoin="round"/>
<path d="M26.7198 35.6274H16.8362C14.6528 35.6274 12.8828 33.8574 12.8828 31.674C12.8828 30.5823 13.7678 29.6973 14.8595 29.6973H28.6965C29.7882 29.6973 30.6732 30.5823 30.6732 31.674C30.6732 33.8574 28.9032 35.6274 26.7198 35.6274Z" stroke="#EB5E88" stroke-width="2.5" stroke-linecap="round" stroke-linejoin="round"/>
<path d="M34.627 25.7437H36.6037C38.7872 25.7437 40.5572 27.5137 40.5572 29.6971V31.6738C40.5572 33.8572 38.7872 35.6272 36.6037 35.6272H33.6387" stroke="#EB5E88" stroke-width="2.5" stroke-linecap="round" stroke-linejoin="round"/>
<path d="M8.92961 25.7437H6.9529C4.76948 25.7437 2.99947 27.5137 2.99947 29.6971V31.6738C2.99947 33.8572 4.76948 35.6272 6.9529 35.6272H9.91797" stroke="#EB5E88" stroke-width="2.5" stroke-linecap="round" stroke-linejoin="round"/>
<path d="M16.8379 9.93018V7.95346C16.8379 5.77004 18.6079 4.00004 20.7913 4.00004H22.768C24.9514 4.00004 26.7215 5.77005 26.7215 7.95346V9.93018" stroke="#EB5E88" stroke-width="2.5" stroke-linecap="round" stroke-linejoin="round"/>
</svg>
