<svg width="44" height="44" viewBox="0 0 44 44" fill="none" xmlns="http://www.w3.org/2000/svg">
<path d="M4 40.3252C10.4548 38.6336 23.3645 34.0484 23.3645 30.9768C23.3645 27.9052 14.2832 26.3026 15.7523 23.7652C17.1654 21.3244 24.0157 20.2429 26.6749 20.164C26.8393 20.1592 26.9703 20.0261 26.9703 19.8616V13.3484M26.9703 4V5.33549M26.9703 5.33549H39.6754C39.9302 5.33549 40.0673 5.63467 39.9009 5.82764L37.1473 9.02181C37.054 9.13007 37.0508 9.28938 37.1396 9.40134L39.8895 12.8655C40.0444 13.0607 39.9054 13.3484 39.6563 13.3484H26.9703M26.9703 5.33549V13.3484" stroke="#422F0F" stroke-width="2.5" stroke-linecap="round"/>
<path d="M31.5156 40.6227C34.2233 39.6523 39.3949 36.7851 38.4201 33.0798C37.2017 28.4482 26.2367 27.2573 26.6418 24.4782C26.8347 23.1549 31.1091 21.8316 33.0049 21.5669" stroke="#422F0F" stroke-width="2.5" stroke-linecap="round"/>
</svg>
