<svg width="44" height="44" viewBox="0 0 44 44" fill="none" xmlns="http://www.w3.org/2000/svg">
<g clip-path="url(#clip0_294_699)">
<path d="M16.8935 38.4163L22.2273 37.1766M22.2273 37.1766C22.8823 38.6918 23.5687 42.1355 21.0983 42.6865C18.6279 43.2374 17.5894 41.5845 16.8876 38.4163C16.1858 35.2481 13.6651 32.9064 14.788 29.325C15.9109 25.7435 20.1216 25.468 21.6656 28.4985C23.2096 31.5289 21.7218 35.5236 22.2273 37.1766Z" stroke="#008F5D" stroke-width="2.5"/>
<path d="M39.5069 26.2088L34.1731 24.969M34.1731 24.969C33.5181 26.4843 32.8317 29.9279 35.3021 30.4789C37.7725 31.0299 38.811 29.377 39.5128 26.2088C40.2146 23.0406 42.7353 20.6989 41.6124 17.1174C40.4895 13.536 36.2788 13.2605 34.7348 16.2909C33.1908 19.3214 34.6785 23.3161 34.1731 24.969Z" stroke="#008F5D" stroke-width="2.5"/>
<path d="M20.6934 2C24.9467 2.41375 33.2888 4.0136 32.6302 7.10295C31.807 10.9647 7.93325 11.1026 7.65884 17.033C7.38443 22.9635 28.9903 21.4734 29.6117 28.3423C29.8862 31.3765 25.3585 33.859 25.3585 33.859" stroke="#008F5D" stroke-width="2.5" stroke-linecap="round"/>
<path d="M2 41.005C5.19423 40.608 12.0481 39.5758 13.9099 38.623" stroke="#008F5D" stroke-width="2.5" stroke-linecap="round"/>
</g>
<defs>
<clipPath id="clip0_294_699">
<rect width="44" height="44" fill="white"/>
</clipPath>
</defs>
</svg>
