<svg width="21" height="21" viewBox="0 0 21 21" fill="none" xmlns="http://www.w3.org/2000/svg">
<path d="M18.375 2.625H2.625C2.14175 2.625 1.75 3.01675 1.75 3.5V6.125C1.75 6.60825 2.14175 7 2.625 7H18.375C18.8582 7 19.25 6.60825 19.25 6.125V3.5C19.25 3.01675 18.8582 2.625 18.375 2.625Z" stroke="#919291" stroke-width="1.75" stroke-linecap="round" stroke-linejoin="round"/>
<path d="M3.5 7V16.625C3.5 17.0891 3.68437 17.5342 4.01256 17.8624C4.34075 18.1906 4.78587 18.375 5.25 18.375H15.75C16.2141 18.375 16.6592 18.1906 16.9874 17.8624C17.3156 17.5342 17.5 17.0891 17.5 16.625V7" stroke="#919291" stroke-width="1.75" stroke-linecap="round" stroke-linejoin="round"/>
<path d="M8.75 10.5H12.25" stroke="#919291" stroke-width="1.75" stroke-linecap="round" stroke-linejoin="round"/>
</svg>
