<svg width="28" height="28" viewBox="0 0 28 28" fill="none" xmlns="http://www.w3.org/2000/svg">
<line x1="5" y1="21.0073" x2="23" y2="21.0073" stroke="#919291" stroke-width="1.5"/>
<path d="M15.0225 4.87868C16.1941 3.70711 18.0931 3.70711 19.2647 4.87868L20.3253 5.93923C21.4968 7.1108 21.4968 9.00984 20.3253 10.1814L11.7424 18.7643C11.577 18.9297 11.3588 19.0319 11.1258 19.0531L6.84845 19.4419C6.22652 19.4985 5.70548 18.9774 5.76202 18.3555L6.15087 14.0781C6.17205 13.8451 6.27424 13.627 6.43966 13.4615L15.0225 4.87868ZM18.2042 5.93923C17.6184 5.35344 16.6689 5.35344 16.0831 5.93923L7.88402 14.1373C7.71859 14.3027 7.61638 14.5209 7.5952 14.7539L7.41831 16.6991C7.36175 17.3211 7.88282 17.8422 8.50479 17.7856L10.4491 17.6087C10.6821 17.5875 10.9002 17.4854 11.0656 17.32L19.2647 9.12087C19.8505 8.53508 19.8505 7.58556 19.2647 6.99977L18.2042 5.93923Z" fill="#919291"/>
</svg>
